<?xml version="1.0" encoding="UTF-8"?>
<svg width="94px" height="20px" viewBox="0 0 94 20" version="1.1" xmlns="http://www.w3.org/2000/svg" xmlns:xlink="http://www.w3.org/1999/xlink">
    <!-- Generator: sketchtool 55 (78076) - https://sketchapp.com -->
    <title>3137AFAC-AFFD-4C37-8FFA-A6C75D84CA72-52392-00002DC3946FE646</title>
    <desc>Created with sketchtool.</desc>
    <g id="actual" stroke="none" stroke-width="1" fill="none" fill-rule="evenodd">
        <g id="m-news-internalpage" transform="translate(-56.000000, -14.000000)" fill="#FFFFFF">
            <g id="block/header">
                <g id="logo">
                    <path d="M68.9192571,29.9893404 C71.1858048,29.9893404 72.3190616,28.8789807 72.3190616,26.6582278 L72.3190616,21.3284477 C72.3190616,19.1076949 71.1858048,17.9973351 68.9192571,17.9973351 L62.799609,17.9973351 C60.9863709,17.9973351 60.0797654,19.1076949 60.0797654,21.3284477 L60.0797654,26.6582278 C60.0797654,28.8789807 61.2130222,29.9893404 63.4795699,29.9893404 L68.9192571,29.9893404 Z M69.599218,33.9866755 L62.799609,34 L62.799609,33.9866755 C58.2665137,33.9866755 56,31.765956 56,27.3244504 L56,20.6622252 C56,16.2207195 58.2665137,14 62.799609,14 L69.599218,14 C74.1323133,14 76.398827,16.2207195 76.398827,20.6622252 L76.398827,27.3244504 C76.398827,31.757073 74.1323133,33.9777925 69.599218,33.9866755 Z M87.2782014,25.9920053 C82.745106,25.9920053 80.4785924,23.9933578 80.4785924,19.9960027 C80.4785924,15.9986476 82.745106,14 87.2782014,14 L100.877419,14 L100.877419,17.9973351 L87.9581623,17.9973351 C85.6916146,17.9973351 84.5583578,18.663551 84.5583578,19.9960027 C84.5583578,21.3284544 85.6916146,21.9946702 87.9581623,21.9946702 L94.0778104,21.9946702 C98.6109057,21.9946702 100.877419,23.9933178 100.877419,27.9906729 C100.877419,31.988028 98.6109057,33.9866755 94.0778104,33.9866755 L80.4785924,33.9866755 L80.4785924,29.9893404 L93.3978495,29.9893404 C95.6643971,29.9893404 96.797654,29.3231246 96.797654,27.9906729 C96.797654,26.6582212 95.6643971,25.9920053 93.3978495,25.9920053 L87.2782014,25.9920053 Z M104.516129,18 L104.516129,14 L118.262366,14 C122.844467,14 125.135484,16.2222 125.135484,20.6666667 L125.135484,27.3333333 C125.135484,31.7778 122.844467,34 118.262366,34 L104.516129,34 L104.516129,30 L117.685024,30 C119.884433,30 120.98412,28.9466772 120.98412,26.84 L120.98412,21.1466667 C120.98412,19.0488784 119.889015,18 117.69877,18 L104.516129,18 Z M143.126882,14 C147.708983,14 150,15.99998 150,20 C150,22.2222333 149.312695,23.5555533 147.938065,24 C149.312695,24.4444467 150,25.7777667 150,28 C150,32.00002 147.708983,34 143.126882,34 L129.380645,34 L129.380645,14 L143.126882,14 Z M143.126882,26 L133.504516,26 L133.504516,30 L142.43957,30 C144.730621,30 145.876129,29.33334 145.876129,28 C145.876129,26.66666 144.959722,26 143.126882,26 Z M143.126882,22 C144.959722,22 145.876129,21.33334 145.876129,20 C145.876129,18.66666 144.730621,18 142.43957,18 L133.504516,18 L133.504516,22 L143.126882,22 Z"></path>
                </g>
            </g>
        </g>
    </g>
</svg>