<?xml version="1.0" encoding="UTF-8"?>
<svg width="256px" height="53px" viewBox="0 0 256 53" version="1.1" xmlns="http://www.w3.org/2000/svg" xmlns:xlink="http://www.w3.org/1999/xlink">
    <!-- Generator: Sketch 55.2 (78181) - https://sketchapp.com -->
    <title>Group 24</title>
    <desc>Created with Sketch.</desc>
    <defs>
        <linearGradient x1="50%" y1="0%" x2="50%" y2="100%" id="linearGradient-1">
            <stop stop-color="#A227FF" offset="0%"></stop>
            <stop stop-color="#A128FF" offset="100%"></stop>
        </linearGradient>
        <linearGradient x1="50%" y1="0%" x2="50%" y2="100%" id="linearGradient-2">
            <stop stop-color="#A227FF" offset="0%"></stop>
            <stop stop-color="#A128FF" offset="100%"></stop>
        </linearGradient>
        <linearGradient x1="50%" y1="0%" x2="50%" y2="100%" id="linearGradient-3">
            <stop stop-color="#A227FF" offset="0%"></stop>
            <stop stop-color="#A128FF" offset="100%"></stop>
        </linearGradient>
    </defs>
    <g id="approved-✅" stroke="none" stroke-width="1" fill="none" fill-rule="evenodd">
        <g id="Login-v3-Copy-2a" transform="translate(-849.000000, -212.000000)" fill="#FFFFFF">
            <g id="Group-24" transform="translate(849.000000, 213.240316)">
                <g id="Group-10" transform="translate(230.506780, 0.000000)" fill-rule="nonzero" stroke-width="0.600000024">
                    <path d="M8.84464164,2.16150729 C8.79247953,1.76456904 8.6353323,1.38957003 8.39003413,1.07668156 C8.15010239,0.77641346 7.82261661,0.539630618 7.41683732,0.378343755 C7.02705347,0.223062254 6.55813424,0.144563594 6.02312856,0.144563594 L2.39216155,0.144563594 L-7.0254913e-13,9.24225796 L2.51212742,9.24225796 L3.17467577,6.71871909 L4.29688282,6.71871909 C4.78535307,6.71970702 5.27166981,6.65274397 5.74236633,6.51968424 C6.20569728,6.38968774 6.64605334,6.18615892 7.04725825,5.91657432 C7.44737339,5.64430422 7.79838886,5.30372298 8.08485779,4.90981829 L8.08485779,4.90981829 C8.38789738,4.48905504 8.6094723,4.01329369 8.73772469,3.50799523 L8.74403868,3.48354483 C8.86905575,3.00869228 8.90315131,2.56343759 8.84464164,2.16150729 Z M4.2850967,2.49995233 L5.430876,2.49995233 C5.79035267,2.49995233 6.04375427,2.57416145 6.18350398,2.72086386 C6.22559727,2.76676199 6.36029579,2.90617217 6.24538111,3.34284778 L6.23948805,3.36686922 C6.16372014,3.65469764 6.00166098,3.89148048 5.74447099,4.09051534 C5.487281,4.28955019 5.17410694,4.3873518 4.78979522,4.3873518 L3.78881684,4.3873518 L4.2850967,2.49995233 Z" id="Shape" stroke="url(#linearGradient-1)"></path>
                    <path d="M15.5269511,0.995180216 C15.0449829,0.430676195 14.2519454,0.144563594 13.1726735,0.144563594 L9.14055745,0.144563594 L6.7483959,9.24225796 L9.26010239,9.24225796 L9.96811149,6.55014 L10.9101593,6.55014 L11.9721729,9.24225796 L14.8260978,9.24225796 L13.5380432,6.08858504 C14.0261384,5.87517972 14.4724573,5.57380422 14.8555631,5.19893357 C15.3375313,4.7270837 15.6805916,4.11453678 15.8746416,3.37587727 L15.8813766,3.35142687 C16.1394084,2.36611855 16.0211263,1.57298182 15.5269511,0.995180216 Z M11.0330717,2.49995233 L12.58,2.49995233 C12.9293743,2.49995233 13.1831968,2.56944295 13.3145279,2.70156091 C13.3540956,2.74102472 13.4740614,2.86241882 13.3667235,3.27078343 L13.3604096,3.29480488 C13.2924545,3.56892108 13.1296799,3.80882518 12.9020137,3.9704081 C12.66124,4.14585046 12.3598521,4.23121239 11.9801706,4.23121239 L10.5780432,4.23121239 L11.0330717,2.49995233 Z" id="Shape" stroke="url(#linearGradient-2)"></path>
                    <path d="M24.6001593,2.92933571 C24.5246629,2.37702465 24.314369,1.85284924 23.9885438,1.40483169 C23.6552809,0.960968 23.2200261,0.607424894 22.7211149,0.375341074 C22.2033675,0.126118554 21.5942776,-5.15143483e-14 20.9111035,-5.15143483e-14 C20.2373961,-0.000985854546 19.5690446,0.121950024 18.9381911,0.362901396 C18.3152148,0.599558139 17.7320261,0.933247229 17.2094198,1.3520703 C16.6923728,1.76695142 16.2384557,2.25756174 15.8624346,2.80794161 C15.4881872,3.35320019 15.2098708,3.96064672 15.0399317,4.60311587 L15.0331968,4.62713732 C14.8648237,5.27056896 14.8227304,5.88740542 14.906917,6.45619898 C14.9824134,7.00851005 15.1927072,7.53268546 15.5185324,7.980703 C15.8519068,8.42445532 16.2871318,8.77797423 16.7859613,9.01019362 C17.3032878,9.25941614 17.9127986,9.38552937 18.5959727,9.38552937 C19.2690501,9.38585108 19.9366686,9.26248296 20.5667804,9.02134644 C21.1897998,8.78478426 21.7730023,8.45108727 22.2955518,8.03217754 C22.8125988,7.61729642 23.2665159,7.12668609 23.642537,6.57630622 C24.01671,6.03100391 24.2950202,5.42357111 24.4650398,4.78113196 L24.4717747,4.75711051 C24.6421749,4.11453678 24.6843458,3.49898719 24.6001593,2.92933571 Z M19.0699431,6.99539469 C18.7559272,6.99539469 18.487372,6.93748585 18.2701706,6.82381292 C18.0623409,6.71795395 17.8844339,6.55983555 17.7532651,6.36440274 C17.6183993,6.15817377 17.5354199,5.92128595 17.5116496,5.67464402 C17.4814092,5.3744716 17.5078425,5.07117486 17.5895222,4.78113196 L17.5954152,4.75796842 C17.6812691,4.43250684 17.8183046,4.12337147 18.0011945,3.84257968 C18.1856441,3.55752257 18.4091811,3.30083588 18.6650057,3.08032767 C18.9139438,2.86574619 19.1956091,2.69404808 19.4988737,2.57201668 C19.7978074,2.45213786 20.1163078,2.39100811 20.437554,2.39184712 C20.7439932,2.39184712 21.0112856,2.44976467 21.2322753,2.56343759 C21.4415158,2.66833872 21.6207007,2.82641447 21.7525484,3.02241882 C21.8863885,3.22901295 21.9692776,3.46549589 21.9941638,3.71174858 C22.0246827,4.01141433 21.998679,4.31426303 21.917554,4.60397378 L21.91124,4.62799523 C21.8253098,4.95356275 21.6882813,5.26282722 21.5054608,5.54381292 C21.3213795,5.82889871 21.0981154,6.08559764 20.8424915,6.30606493 C20.5922963,6.52118975 20.3089944,6.69278692 20.0039932,6.81394697 C19.706466,6.93324053 19.3896707,6.99478089 19.0699431,6.99539469 L19.0699431,6.99539469 Z" id="Shape" stroke="url(#linearGradient-3)"></path>
                </g>
                <path d="M30.8405797,42.3346343 C36.2512348,42.3346343 38.9565217,39.7252888 38.9565217,34.5065197 L38.9565217,21.9815363 C38.9565217,16.7627672 36.2512348,14.1534217 30.8405797,14.1534217 L16.2318841,14.1534217 C11.90336,14.1534217 9.73913043,16.7627672 9.73913043,21.9815363 L9.73913043,34.5065197 C9.73913043,39.7252888 12.4444174,42.3346343 17.8550725,42.3346343 L30.8405797,42.3346343 Z M32.4637681,51.7283718 L16.2318841,51.7596842 L16.2318841,51.7283718 C5.41057391,51.7283718 0,46.5096809 0,36.0721426 L0,20.4159134 C0,9.97837511 5.41057391,4.75968424 16.2318841,4.75968424 L32.4637681,4.75968424 C43.2850783,4.75968424 48.6956522,9.97837511 48.6956522,20.4159134 L48.6956522,36.0721426 C48.6956522,46.4888058 43.2850783,51.7074967 32.4637681,51.7283718 Z M74.6666667,32.9408968 C63.8453565,32.9408968 58.4347826,28.244075 58.4347826,18.8502905 C58.4347826,9.45650602 63.8453565,4.75968424 74.6666667,4.75968424 L107.130435,4.75968424 L107.130435,14.1534217 L76.2898551,14.1534217 C70.8792,14.1534217 68.173913,15.719029 68.173913,18.8502905 C68.173913,21.981552 70.8792,23.5471593 76.2898551,23.5471593 L90.8985507,23.5471593 C101.719861,23.5471593 107.130435,28.243981 107.130435,37.6377655 C107.130435,47.03155 101.719861,51.7283718 90.8985507,51.7283718 L58.4347826,51.7283718 L58.4347826,42.3346343 L89.2753623,42.3346343 C94.6860174,42.3346343 97.3913043,40.769027 97.3913043,37.6377655 C97.3913043,34.506504 94.6860174,32.9408968 89.2753623,32.9408968 L74.6666667,32.9408968 Z M116.869565,14.1534217 L116.869565,4.75968424 L149.333333,4.75968424 C160.154643,4.75968424 165.565217,9.97837511 165.565217,20.4159134 L165.565217,36.0721426 C165.565217,46.5096809 160.154643,51.7283718 149.333333,51.7283718 L116.869565,51.7283718 L116.869565,42.3346343 L147.969855,42.3346343 C153.164084,42.3346343 155.761159,39.8609748 155.761159,34.9135816 L155.761159,21.5431619 C155.761159,16.6166438 153.174905,14.1534217 148.002319,14.1534217 L116.869565,14.1534217 Z M207.768116,4.75968424 C218.589426,4.75968424 224,9.45650602 224,18.8502905 C224,24.0690597 222.376828,27.2002742 219.130435,28.244028 C222.376828,29.2877818 224,32.4189964 224,37.6377655 C224,47.03155 218.589426,51.7283718 207.768116,51.7283718 L175.304348,51.7283718 L175.304348,4.75968424 L207.768116,4.75968424 Z M207.768116,32.9408968 L185.043478,32.9408968 L185.043478,42.3346343 L206.144928,42.3346343 C211.555583,42.3346343 214.26087,40.769027 214.26087,37.6377655 C214.26087,34.506504 212.09664,32.9408968 207.768116,32.9408968 Z M207.768116,23.5471593 C212.09664,23.5471593 214.26087,21.981552 214.26087,18.8502905 C214.26087,15.719029 211.555583,14.1534217 206.144928,14.1534217 L185.043478,14.1534217 L185.043478,23.5471593 L207.768116,23.5471593 Z" id="Combined-Shape"></path>
            </g>
        </g>
    </g>
</svg>